<svg xmlns="http://www.w3.org/2000/svg" viewBox="0 0 395.7 263.9" enable-background="new 0 0 395.7 263.9"><style type="text/css">.st0{fill:#123040;} .st1{fill:#FFFFFF;}</style><path class="st0" d="M72.6 156.6L46 81H26.5L0 156.6h17.1l5.4-17.9h27.3l5.4 17.9h17.4zm-46-31.4c5.3-17.3 8.6-28.2 9.7-32.6.3 1.2.7 2.9 1.4 5 .6 2.1 3.5 11.3 8.5 27.5H26.6v.1zM395.7 81.3h-15.9v29.5h-29.7V81.3h-15.9v75.3h15.9v-32.5h29.7v32.5h15.9V81.3z"/><path class="st1" d="M241.2 151.9h-53.7l52.2-75.3v-15h-78.4v19.2h51.1l-52.3 75.3v15.1h81.2v-19.3h-.1z"/><path class="st0" d="M329.8 256.8c-6.5 6.5-14.6 9-18.1 5.4l-46.3-46.9s0-.1-.1-.1c-18.6 12.5-41 19.8-65.2 19.8-64.9 0-117.4-52.6-117.4-117.4S135.3 0 200.1 0s117.4 52.6 117.4 117.4c0 28.7-10.4 55-27.5 75.4l45.1 45.6c3.6 3.7 1.2 11.8-5.3 18.4zm-129.7-228c-49 0-88.7 39.7-88.7 88.7s39.7 88.7 88.7 88.7 88.7-39.7 88.7-88.7-39.7-88.7-88.7-88.7z"/></svg>